# xmcd
#
# Track frame offsets:
#	150
#	27382
#	34112
#	44304
#	53404
#	67449
#	98199
#	107991
#	121404
#	135286
#	148896
#	166372
#	195260
#
# Disc length: 2765 seconds
#
# Revision: 1
# Processed by: cddbd v1.5.1PL2 Copyright (c) Steve Scherf et al.
# Submitted via: CDmax 2.0
#
DISCID=b80acb0d
DTITLE=Travis and the FlameKats - Easy Street
DYEAR=2002
DGENRE=Blues
TTITLE0=Before You Accuse Me
TTITLE1=the Basset Lodge Blues
TTITLE2=Easy Street
TTITLE3=Parkins Farm
TTITLE4=My Love to You
TTITLE5=Howl for me Baby
TTITLE6=Woman in Love
TTITLE7=Take Me to the River
TTITLE8=Playin' My Blues
TTITLE9=Hot Rod Mama
TTITLE10=Peaceful Easy Feeling
TTITLE11=Johnnie B. Goode
TTITLE12=Weepin' and Moanin'
EXTD=Tracks 1-3 recorded live at the Zoo Bar, Lincoln, NB (no date given).\n\
EXTD=n- Travis and the FlameKats -\nMike Cooney: vox (4) - harmonica (4,8,13);
EXTD=\nBecky Koester: vox, bass;\nTravis Koester: vox, guitar, dobro, percuss
EXTD=ion;\nRyan Larsen: drums (1,6,12);\nJohn Moss: harmonica (1,6,12);\nChri
EXTD=s Robbins: b.vox - guitar (1,2,6,9,11,12).
EXTT0=
EXTT1=
EXTT2=
EXTT3=
EXTT4=
EXTT5=
EXTT6=
EXTT7=
EXTT8=
EXTT9=
EXTT10=
EXTT11=
EXTT12=
PLAYORDER=
